<svg width="1500" height="1500" viewBox="0 0 1500 1500" fill="none" xmlns="http://www.w3.org/2000/svg">
<path d="M708.56 663.182H518.29C516.94 647.438 513.342 633.157 507.494 620.337C501.872 607.518 494 596.497 483.879 587.276C473.983 577.83 461.951 570.633 447.782 565.685C433.613 560.513 417.532 557.926 399.54 557.926C368.053 557.926 341.402 565.573 319.586 580.866C297.995 596.16 281.577 618.088 270.332 646.651C259.311 675.214 253.801 709.512 253.801 749.545C253.801 791.828 259.424 827.25 270.669 855.813C282.139 884.151 298.67 905.517 320.261 919.911C341.852 934.08 367.828 941.165 398.19 941.165C415.508 941.165 431.027 939.028 444.746 934.755C458.465 930.257 470.385 923.847 480.506 915.526C490.626 907.204 498.835 897.196 505.133 885.501C511.655 873.581 516.041 860.199 518.29 845.355L708.56 846.705C706.311 875.942 698.102 905.742 683.933 936.104C669.763 966.242 649.634 994.13 623.545 1019.77C597.681 1045.18 565.632 1065.65 527.398 1081.17C489.165 1096.69 444.746 1104.45 394.142 1104.45C330.719 1104.45 273.818 1090.84 223.439 1063.63C173.285 1036.41 133.589 996.379 104.352 943.526C75.3388 890.674 60.8324 826.013 60.8324 749.545C60.8324 672.628 75.6761 607.855 105.364 555.227C135.051 502.375 175.084 462.454 225.463 435.465C275.842 408.252 332.068 394.645 394.142 394.645C437.774 394.645 477.919 400.605 514.579 412.525C551.238 424.445 583.4 441.875 611.063 464.815C638.727 487.531 660.992 515.531 677.86 548.817C694.728 582.103 704.961 620.225 708.56 663.182ZM1438.69 663.182H1248.42C1247.07 647.438 1243.47 633.157 1237.62 620.337C1232 607.518 1224.13 596.497 1214.01 587.276C1204.11 577.83 1192.08 570.633 1177.91 565.685C1163.74 560.513 1147.66 557.926 1129.67 557.926C1098.18 557.926 1071.53 565.573 1049.71 580.866C1028.12 596.16 1011.7 618.088 1000.46 646.651C989.438 675.214 983.928 709.512 983.928 749.545C983.928 791.828 989.551 827.25 1000.8 855.813C1012.27 884.151 1028.8 905.517 1050.39 919.911C1071.98 934.08 1097.96 941.165 1128.32 941.165C1145.64 941.165 1161.15 939.028 1174.87 934.755C1188.59 930.257 1200.51 923.847 1210.63 915.526C1220.75 907.204 1228.96 897.196 1235.26 885.501C1241.78 873.581 1246.17 860.199 1248.42 845.355L1438.69 846.705C1436.44 875.942 1428.23 905.742 1414.06 936.104C1399.89 966.242 1379.76 994.13 1353.67 1019.77C1327.81 1045.18 1295.76 1065.65 1257.53 1081.17C1219.29 1096.69 1174.87 1104.45 1124.27 1104.45C1060.85 1104.45 1003.94 1090.84 953.566 1063.63C903.412 1036.41 863.716 996.379 834.479 943.526C805.466 890.674 790.959 826.013 790.959 749.545C790.959 672.628 805.803 607.855 835.491 555.227C865.178 502.375 905.211 462.454 955.59 435.465C1005.97 408.252 1062.2 394.645 1124.27 394.645C1167.9 394.645 1208.05 400.605 1244.71 412.525C1281.37 424.445 1313.53 441.875 1341.19 464.815C1368.85 487.531 1391.12 515.531 1407.99 548.817C1424.85 582.103 1435.09 620.225 1438.69 663.182Z" fill="black" fill-opacity="0.1"/>
</svg>
